FFmpeg version SVN-r25716, Copyright (c) 2000-2010 the FFmpeg developers  built on Nov 10 2010 12:23:18 with gcc 4.1.2 20080704 (Red Hat 4.1.2-48)  configuration: --enable-libmp3lame --enable-shared --disable-mmx --arch=x86_64  libavutil     50.33. 0 / 50.33. 0  libavcore      0.12. 1 /  0.12. 1  libavcodec    52.94. 4 / 52.94. 4  libavformat   52.84. 0 / 52.84. 0  libavdevice   52. 2. 2 / 52. 2. 2  libavfilter    1.59. 0 /  1.59. 0  libswscale     0.12. 0 /  0.12. 0Input #0, avi, from '/RAID10/data/converted_video_files/47524.avi':  Duration: 00:00:12.53, start: 0.000000, bitrate: 283092 kb/s    Stream #0.0: Video: msvideo1, rgb555le, 1024x1024, 30 tbr, 30 tbn, 30 tbc[buffer @ 0xe718510] w:1024 h:1024 pixfmt:rgb555le[ffsink @ 0xe736e50] auto-inserting filter 'auto-inserted scaler 0' between the filter 'src' and the filter 'out'[scale @ 0xe737170] w:1024 h:1024 fmt:rgb555le -> w:1024 h:1024 fmt:yuv420p flags:0x4Output #0, flv, to '/RAID10/data/converted_video_files/47524.flv':  Metadata:    encoder         : Lavf52.84.0    Stream #0.0: Video: flv, yuv420p, 1024x1024, q=2-31, 600 kb/s, 1k tbn, 24 tbcStream mapping:  Stream #0.0 -> #0.0Press [q] to stop encodingframe=    6 fps=  0 q=4.9 size=     780kB time=0.25 bitrate=25555.4kbits/s dup=0 drop=1    frame=   14 fps= 12 q=27.2 size=     825kB time=0.58 bitrate=11587.6kbits/s dup=0 drop=3    frame=   23 fps= 14 q=31.0 size=     902kB time=0.96 bitrate=7711.4kbits/s dup=0 drop=5    frame=   32 fps= 14 q=31.0 size=     963kB time=1.33 bitrate=5918.8kbits/s dup=0 drop=7    frame=   40 fps= 14 q=31.0 size=     969kB time=1.67 bitrate=4760.1kbits/s dup=0 drop=9    frame=   47 fps= 14 q=31.0 size=    1000kB time=1.96 bitrate=4183.1kbits/s dup=0 drop=11    frame=   56 fps= 15 q=31.0 size=    1033kB time=2.33 bitrate=3628.5kbits/s dup=0 drop=14    frame=   64 fps= 15 q=31.0 size=    1039kB time=2.67 bitrate=3190.0kbits/s dup=0 drop=15    frame=   73 fps= 15 q=31.0 size=    1071kB time=3.04 bitrate=2883.2kbits/s dup=0 drop=18    frame=   79 fps= 15 q=31.0 size=    1101kB time=3.29 bitrate=2739.6kbits/s dup=0 drop=19    frame=   86 fps= 14 q=31.0 size=    1105kB time=3.58 bitrate=2526.9kbits/s dup=0 drop=21    frame=   94 fps= 14 q=31.0 size=    1137kB time=3.92 bitrate=2377.6kbits/s dup=0 drop=23    frame=  102 fps= 15 q=24.8 size=    1178kB time=4.25 bitrate=2271.6kbits/s dup=0 drop=25    frame=  109 fps= 14 q=31.0 size=    1184kB time=4.54 bitrate=2135.0kbits/s dup=0 drop=27    frame=  119 fps= 15 q=31.0 size=    1217kB time=4.96 bitrate=2011.4kbits/s dup=0 drop=29    frame=  128 fps= 15 q=31.0 size=    1263kB time=5.33 bitrate=1940.5kbits/s dup=0 drop=31    frame=  137 fps= 15 q=31.0 size=    1290kB time=5.71 bitrate=1852.0kbits/s dup=0 drop=34    frame=  147 fps= 15 q=31.0 size=    1324kB time=6.12 bitrate=1770.2kbits/s dup=0 drop=36    frame=  155 fps= 15 q=31.0 size=    1355kB time=6.46 bitrate=1719.3kbits/s dup=0 drop=39    frame=  164 fps= 15 q=31.0 size=    1388kB time=6.83 bitrate=1663.8kbits/s dup=0 drop=40    frame=  172 fps= 15 q=31.0 size=    1393kB time=7.17 bitrate=1592.3kbits/s dup=0 drop=42    frame=  181 fps= 15 q=31.0 size=    1426kB time=7.54 bitrate=1548.4kbits/s dup=0 drop=45    frame=  189 fps= 15 q=31.0 size=    1458kB time=7.88 bitrate=1516.3kbits/s dup=0 drop=47    frame=  197 fps= 15 q=31.0 size=    1463kB time=8.21 bitrate=1460.2kbits/s dup=0 drop=49    frame=  205 fps= 15 q=31.0 size=    1495kB time=8.54 bitrate=1433.7kbits/s dup=0 drop=51    frame=  214 fps= 15 q=31.0 size=    1527kB time=8.92 bitrate=1403.2kbits/s dup=0 drop=53    frame=  223 fps= 16 q=31.0 size=    1560kB time=9.29 bitrate=1375.2kbits/s dup=0 drop=55    frame=  232 fps= 16 q=31.0 size=    1566kB time=9.67 bitrate=1326.9kbits/s dup=0 drop=57    frame=  242 fps= 16 q=31.0 size=    1599kB time=10.08 bitrate=1299.2kbits/s dup=0 drop=60    frame=  250 fps= 16 q=31.0 size=    1631kB time=10.42 bitrate=1282.5kbits/s dup=0 drop=62    frame=  257 fps= 16 q=31.0 size=    1635kB time=10.71 bitrate=1251.1kbits/s dup=0 drop=64    frame=  263 fps= 15 q=31.0 size=    1666kB time=10.96 bitrate=1245.3kbits/s dup=0 drop=66    frame=  272 fps= 16 q=31.0 size=    1698kB time=11.33 bitrate=1227.5kbits/s dup=0 drop=68    frame=  281 fps= 16 q=31.0 size=    1704kB time=11.71 bitrate=1192.4kbits/s dup=0 drop=70    frame=  290 fps= 16 q=31.0 size=    1737kB time=12.08 bitrate=1177.6kbits/s dup=0 drop=72    frame=  299 fps= 16 q=31.0 size=    1770kB time=12.46 bitrate=1163.7kbits/s dup=0 drop=74    frame=  301 fps= 16 q=31.0 Lsize=    1771kB time=12.54 bitrate=1156.8kbits/s dup=0 drop=75    video:1766kB audio:0kB global headers:0kB muxing overhead 0.277893%